<svg width="54" height="54" viewBox="0 0 54 54" fill="none" xmlns="http://www.w3.org/2000/svg">
<path d="M36.0517 21.033H47.2837L40.1265 13.8712C37.8222 11.5669 34.952 9.90987 31.8042 9.0666C28.6565 8.22333 25.3422 8.22357 22.1946 9.06731C19.047 9.91106 16.177 11.5686 13.873 13.8732C11.5691 16.1778 9.91251 19.0484 9.06974 22.1962M6.71624 44.199V32.967M6.71624 32.967H17.9482M6.71624 32.967L13.8712 40.1287C16.1755 42.433 19.0458 44.0901 22.1935 44.9334C25.3412 45.7766 28.6555 45.7764 31.8031 44.9327C34.9507 44.0889 37.8208 42.4314 40.1247 40.1268C42.4286 37.8222 44.0852 34.9516 44.928 31.8037M47.2837 9.80099V21.0285" stroke="black" stroke-width="1.5" stroke-linecap="round" stroke-linejoin="round"/>
</svg>
