<svg width="32" height="32" viewBox="0 0 32 32" fill="none" xmlns="http://www.w3.org/2000/svg">
<path d="M4.11512 14.2454C5.08065 7.68408 11.1824 3.14777 17.7437 4.1133C19.9823 4.4427 22.0823 5.3979 23.8017 6.86883L22.2539 8.41669C21.7351 8.93561 21.7352 9.77689 22.2542 10.2957C22.5033 10.5447 22.8411 10.6846 23.1933 10.6847H29.2865C30.0202 10.6847 30.6151 10.0898 30.6151 9.35606V3.26287C30.6149 2.52908 30.0199 1.93436 29.2861 1.93449C28.934 1.93455 28.5961 2.0745 28.3471 2.32349L26.6197 4.05071C20.033 -1.82076 9.93354 -1.24093 4.06206 5.34583C1.98196 7.67929 0.632095 10.5717 0.179691 13.6648C0.00132041 14.7614 0.745632 15.7949 1.84214 15.9733C1.94092 15.9894 2.04069 15.998 2.14077 15.9993C3.14399 15.9884 3.98608 15.2404 4.11512 14.2454Z" fill="#1100FF"/>
<path d="M29.859 15.9993C28.8558 16.0101 28.0137 16.7582 27.8847 17.7531C26.9191 24.3144 20.8174 28.8507 14.2561 27.8853C12.0174 27.5559 9.91748 26.6007 8.19804 25.1297L9.7459 23.5819C10.2647 23.063 10.2646 22.2217 9.74559 21.7029C9.49653 21.4539 9.15872 21.314 8.80652 21.3139H2.71345C1.97967 21.3139 1.38483 21.9087 1.38483 22.6425V28.7357C1.38501 29.4695 1.97998 30.0642 2.71376 30.0641C3.06596 30.064 3.40377 29.9241 3.65283 29.6751L5.38005 27.9479C11.9653 33.82 22.0639 33.2419 27.9361 26.6567C30.0173 24.3227 31.3678 21.4293 31.8201 18.3351C31.9992 17.2386 31.2556 16.2046 30.1592 16.0255C30.0599 16.0092 29.9596 16.0005 29.859 15.9993Z" fill="#1100FF"/>
</svg>
