<svg width="36" height="36" viewBox="0 0 36 36" fill="none" xmlns="http://www.w3.org/2000/svg">
<path d="M14.3909 5.91C14.5259 5.097 15.2309 4.5 16.0559 4.5H19.9454C20.7704 4.5 21.4754 5.097 21.6104 5.91L21.9299 7.8315C22.0244 8.3925 22.3994 8.8605 22.8974 9.1365C23.0084 9.1965 23.1179 9.261 23.2274 9.327C23.7149 9.621 24.3074 9.7125 24.8399 9.513L26.6654 8.829C27.0395 8.68831 27.4514 8.68497 27.8278 8.81957C28.2041 8.95417 28.5204 9.21797 28.7204 9.564L30.6644 12.9345C30.864 13.2806 30.9344 13.6862 30.863 14.0792C30.7915 14.4723 30.583 14.8273 30.2744 15.081L28.7699 16.3215C28.3304 16.683 28.1129 17.241 28.1249 17.8095C28.127 17.937 28.127 18.0645 28.1249 18.192C28.1129 18.759 28.3304 19.317 28.7699 19.6785L30.2759 20.919C30.9119 21.444 31.0769 22.3515 30.6659 23.064L28.7189 26.4345C28.5192 26.7805 28.2032 27.0443 27.8272 27.1792C27.4512 27.3141 27.0395 27.3112 26.6654 27.171L24.8399 26.487C24.3074 26.2875 23.7149 26.379 23.2259 26.673C23.1172 26.7392 23.0072 26.8032 22.8959 26.865C22.3994 27.1395 22.0244 27.6075 21.9299 28.1685L21.6104 30.09C21.4754 30.9045 20.7704 31.5 19.9454 31.5H16.0544C15.2294 31.5 14.5259 30.903 14.3894 30.09L14.0699 28.1685C13.9769 27.6075 13.6019 27.1395 13.1039 26.8635C12.9927 26.8021 12.8827 26.7386 12.7739 26.673C12.2864 26.379 11.6939 26.2875 11.1599 26.487L9.33444 27.171C8.96053 27.3113 8.54899 27.3144 8.17299 27.1798C7.79699 27.0453 7.48091 26.7817 7.28094 26.436L5.33544 23.0655C5.13586 22.7194 5.06551 22.3138 5.13693 21.9208C5.20834 21.5277 5.41688 21.1727 5.72544 20.919L7.23144 19.6785C7.66944 19.3185 7.88694 18.759 7.87644 18.192C7.8741 18.0645 7.8741 17.937 7.87644 17.8095C7.88694 17.2395 7.66944 16.683 7.23144 16.3215L5.72544 15.081C5.41725 14.8273 5.20895 14.4727 5.13755 14.0799C5.06615 13.6872 5.13626 13.2819 5.33544 12.936L7.28094 9.5655C7.48072 9.2192 7.79696 8.95509 8.17331 8.8202C8.54966 8.68532 8.96168 8.68844 9.33594 8.829L11.1599 9.513C11.6939 9.7125 12.2864 9.621 12.7739 9.327C12.8819 9.261 12.9929 9.198 13.1039 9.135C13.6019 8.8605 13.9769 8.3925 14.0699 7.8315L14.3909 5.91Z" stroke="black" stroke-width="1.5" stroke-linecap="round" stroke-linejoin="round"/>
<path d="M22.5 18C22.5 19.1935 22.0259 20.3381 21.182 21.182C20.3381 22.0259 19.1935 22.5 18 22.5C16.8065 22.5 15.6619 22.0259 14.818 21.182C13.9741 20.3381 13.5 19.1935 13.5 18C13.5 16.8065 13.9741 15.6619 14.818 14.818C15.6619 13.9741 16.8065 13.5 18 13.5C19.1935 13.5 20.3381 13.9741 21.182 14.818C22.0259 15.6619 22.5 16.8065 22.5 18Z" stroke="black" stroke-width="1.5" stroke-linecap="round" stroke-linejoin="round"/>
</svg>
