<svg width="37" height="37" viewBox="0 0 37 37" fill="none" xmlns="http://www.w3.org/2000/svg">
<path d="M22.7242 13.8749L22.1907 27.7499M14.8092 27.7499L14.2758 13.8749M29.6432 8.9262C30.1704 9.00637 30.6946 9.09116 31.2187 9.18212M29.6432 8.9262L27.9967 30.3292C27.9295 31.2005 27.5358 32.0145 26.8944 32.6081C26.253 33.2018 25.4111 33.5315 24.5372 33.5312H12.4628C11.5889 33.5315 10.747 33.2018 10.1056 32.6081C9.46419 32.0145 9.07053 31.2005 9.00333 30.3292L7.35683 8.9262M29.6432 8.9262C27.8639 8.6572 26.0754 8.45306 24.2812 8.31416M7.35683 8.9262C6.82958 9.00482 6.30542 9.08962 5.78125 9.18057M7.35683 8.9262C9.13612 8.65721 10.9246 8.45306 12.7187 8.31416M24.2812 8.31416V6.90199C24.2812 5.08282 22.8783 3.56582 21.0592 3.50878C19.3535 3.45427 17.6465 3.45427 15.9408 3.50878C14.1217 3.56582 12.7187 5.08437 12.7187 6.90199V8.31416M24.2812 8.31416C20.4328 8.01674 16.5672 8.01674 12.7187 8.31416" stroke="white" stroke-width="1.5" stroke-linecap="round" stroke-linejoin="round"/>
</svg>
