<svg width="44" height="44" viewBox="0 0 44 44" fill="none" xmlns="http://www.w3.org/2000/svg">
<path d="M29.3755 17.138H38.5275L32.6957 11.3025C30.8182 9.42494 28.4794 8.07473 25.9146 7.38762C23.3498 6.70051 20.6493 6.70071 18.0845 7.3882C15.5198 8.0757 13.1813 9.42626 11.304 11.3041C9.42673 13.182 8.0769 15.5209 7.3902 18.0858M5.47254 36.014V26.862M5.47254 26.862H14.6245M5.47254 26.862L11.3025 32.6975C13.1801 34.5751 15.5188 35.9253 18.0836 36.6124C20.6485 37.2995 23.349 37.2993 25.9137 36.6118C28.4784 35.9243 30.817 34.5738 32.6942 32.6959C34.5715 30.8181 35.9213 28.4791 36.608 25.9142M38.5275 7.98601V17.1343" stroke="white" stroke-width="1.5" stroke-linecap="round" stroke-linejoin="round"/>
</svg>
