<svg width="30" height="30" viewBox="0 0 30 30" fill="none" xmlns="http://www.w3.org/2000/svg">
<path d="M11.9925 4.925C12.105 4.2475 12.6925 3.75 13.38 3.75H16.6212C17.3087 3.75 17.8962 4.2475 18.0087 4.925L18.275 6.52625C18.3537 6.99375 18.6662 7.38375 19.0812 7.61375C19.1737 7.66375 19.265 7.7175 19.3562 7.7725C19.7625 8.0175 20.2562 8.09375 20.7 7.9275L22.2212 7.3575C22.533 7.24026 22.8762 7.23747 23.1898 7.34964C23.5035 7.46181 23.7671 7.68164 23.9337 7.97L25.5537 10.7788C25.7201 11.0671 25.7787 11.4052 25.7192 11.7327C25.6597 12.0602 25.4859 12.3561 25.2287 12.5675L23.975 13.6012C23.6087 13.9025 23.4275 14.3675 23.4375 14.8413C23.4393 14.9475 23.4393 15.0538 23.4375 15.16C23.4275 15.6325 23.6087 16.0975 23.975 16.3988L25.23 17.4325C25.76 17.87 25.8975 18.6263 25.555 19.22L23.9325 22.0287C23.7661 22.317 23.5027 22.5369 23.1894 22.6493C22.876 22.7617 22.533 22.7593 22.2212 22.6425L20.7 22.0725C20.2562 21.9063 19.7625 21.9825 19.355 22.2275C19.2644 22.2826 19.1727 22.336 19.08 22.3875C18.6662 22.6162 18.3537 23.0062 18.275 23.4737L18.0087 25.075C17.8962 25.7537 17.3087 26.25 16.6212 26.25H13.3787C12.6912 26.25 12.105 25.7525 11.9912 25.075L11.725 23.4737C11.6475 23.0062 11.335 22.6163 10.92 22.3863C10.8273 22.3351 10.7356 22.2822 10.645 22.2275C10.2387 21.9825 9.745 21.9063 9.3 22.0725L7.77875 22.6425C7.46716 22.7594 7.1242 22.762 6.81087 22.6499C6.49754 22.5377 6.23414 22.3181 6.0675 22.03L4.44625 19.2212C4.27993 18.9329 4.22131 18.5948 4.28082 18.2673C4.34033 17.9398 4.51411 17.6439 4.77125 17.4325L6.02625 16.3988C6.39125 16.0988 6.5725 15.6325 6.56375 15.16C6.56179 15.0538 6.56179 14.9475 6.56375 14.8413C6.5725 14.3663 6.39125 13.9025 6.02625 13.6012L4.77125 12.5675C4.51442 12.3561 4.34084 12.0605 4.28134 11.7333C4.22184 11.406 4.28027 11.0683 4.44625 10.78L6.0675 7.97125C6.23398 7.68267 6.49751 7.46257 6.81114 7.35017C7.12476 7.23777 7.46811 7.24037 7.78 7.3575L9.3 7.9275C9.745 8.09375 10.2387 8.0175 10.645 7.7725C10.735 7.7175 10.8275 7.665 10.92 7.6125C11.335 7.38375 11.6475 6.99375 11.725 6.52625L11.9925 4.925Z" stroke="#808080" stroke-width="1.5" stroke-linecap="round" stroke-linejoin="round"/>
<path d="M18.75 15C18.75 15.9946 18.3549 16.9484 17.6517 17.6517C16.9484 18.3549 15.9946 18.75 15 18.75C14.0054 18.75 13.0516 18.3549 12.3483 17.6517C11.6451 16.9484 11.25 15.9946 11.25 15C11.25 14.0054 11.6451 13.0516 12.3483 12.3483C13.0516 11.6451 14.0054 11.25 15 11.25C15.9946 11.25 16.9484 11.6451 17.6517 12.3483C18.3549 13.0516 18.75 14.0054 18.75 15Z" stroke="#808080" stroke-width="1.5" stroke-linecap="round" stroke-linejoin="round"/>
</svg>
